<svg width="29" height="20" viewBox="0 0 29 20" fill="none" xmlns="http://www.w3.org/2000/svg">
<g clip-path="url(#clip0_1_202)">
<path d="M20.2874 10.225C20.2874 9.56668 20.2291 8.94168 20.1291 8.33334H10.7124V12.0917H16.1041C15.8624 13.325 15.1541 14.3667 14.1041 15.075V17.575H17.3207C19.2041 15.8333 20.2874 13.2667 20.2874 10.225Z" fill="#4285F4"/>
<path d="M10.7124 20C13.4124 20 15.6707 19.1 17.3207 17.575L14.1041 15.075C13.2041 15.675 12.0624 16.0417 10.7124 16.0417C8.10408 16.0417 5.89575 14.2833 5.10408 11.9083H1.78741V14.4833C3.42908 17.75 6.80408 20 10.7124 20Z" fill="#01B574"/>
<path d="M5.10407 11.9083C4.89574 11.3083 4.7874 10.6667 4.7874 9.99999C4.7874 9.33333 4.90407 8.69166 5.10407 8.09166V5.51666H1.7874C1.10407 6.86666 0.712402 8.38333 0.712402 9.99999C0.712402 11.6167 1.10407 13.1333 1.7874 14.4833L5.10407 11.9083Z" fill="#FBBC05"/>
<path d="M10.7124 3.95833C12.1874 3.95833 13.5041 4.46667 14.5457 5.45834L17.3957 2.60833C15.6707 0.991667 13.4124 0 10.7124 0C6.80408 0 3.42908 2.25 1.78741 5.51667L5.10408 8.09167C5.89575 5.71667 8.10408 3.95833 10.7124 3.95833Z" fill="#EA4335"/>
</g>
<defs>
<clipPath id="clip0_1_202">
<rect width="20" height="20" fill="white" transform="translate(0.5)"/>
</clipPath>
</defs>
</svg>
